<?xml version="1.0" encoding="UTF-8" standalone="no"?><!DOCTYPE svg PUBLIC "-//W3C//DTD SVG 1.1//EN" "http://www.w3.org/Graphics/SVG/1.1/DTD/svg11.dtd"><svg width="100%" height="100%" viewBox="0 0 3334 3334" version="1.1" xmlns="http://www.w3.org/2000/svg" xmlns:xlink="http://www.w3.org/1999/xlink" xml:space="preserve" xmlns:serif="http://www.serif.com/" style="fill-rule:evenodd;clip-rule:evenodd;stroke-linecap:round;stroke-linejoin:round;stroke-miterlimit:1.5;"><path d="M1666.67,264.253c-690.356,0 -1250,559.645 -1250,1250c-0,375.556 195.636,702.153 413.322,951.014c219.262,250.653 475.178,438.917 627.497,540.25c127.375,84.75 290.986,84.75 418.361,0c152.32,-101.333 408.236,-289.597 627.5,-540.25c217.681,-248.861 413.32,-575.458 413.32,-951.014c-0,-690.355 -559.639,-1250 -1250,-1250Zm-277.778,1250c-0,-153.412 124.361,-277.777 277.778,-277.777c153.416,-0 277.777,124.365 277.777,277.777c0,153.417 -124.361,277.778 -277.777,277.778c-153.417,0 -277.778,-124.361 -277.778,-277.778Zm277.778,-555.555c-306.825,-0 -555.556,248.73 -555.556,555.555c0,306.82 248.731,555.556 555.556,555.556c306.819,0 555.555,-248.736 555.555,-555.556c0,-306.825 -248.736,-555.555 -555.555,-555.555Z" style="fill:#17539a;"/><rect x="953.221" y="892.64" width="1426.89" height="1417.72" style="fill:#17539a;"/><g id="Layer1"><path d="M1591.75,1410.81l-418.836,-0l1207.2,-563.523l-607.309,565.489l413.416,-3.554" style="fill:none;stroke:#fff;stroke-width:79.17px;"/><path d="M1763.97,1617.69l418.836,0l-1207.2,563.523l607.308,-565.489l-413.416,3.554" style="fill:none;stroke:#fff;stroke-width:83.33px;"/></g><g id="Layer2"></g></svg>